<svg xmlns="http://www.w3.org/2000/svg" xmlns:xlink="http://www.w3.org/1999/xlink" class="" app-context="doc-2d" x="0px" y="0px" width="595.2755905512" height="841.8897637795" jvs-fullPath="gdrive/Untitled.svg"><title/><desc/><defs/><g id="jvs-guides" transform="matrix(1 0 0 1 0 0)"/><g id="jvs-content" enable-background="new"><g transform="matrix(1,0,0,1,0,0)" name="Layer" jvs-layer-color="#fb0094" class="jvs-layer selected"><path d="M 33.76900100708008 17.48330307006836 L 29.62196159362793 17.48330307006836 L 29.62196159362793 17.124895095825195 C 29.433137893676758 9.372798919677734 23.111177444458008 3.1452460289001465 15.339850425720215 3.1452460289001465 C 7.44613790512085 3.1452460289001465 1.048998236656189 9.565114974975586 1.048998236656189 17.48330307006836 C 1.048998236656189 25.401491165161133 7.44613790512085 31.8178653717041 15.339850425720215 31.8178653717041 C 18.658180236816406 31.8178653717041 21.712512969970703 30.681447982788086 24.139196395874023 28.779268264770508 L 21.68104362487793 26.1497745513916 C 19.904741287231445 27.457529067993164 17.71233367919922 28.235536575317383 15.339850425720215 28.235536575317383 C 9.420003890991211 28.235536575317383 4.6208367347717285 23.420631408691406 4.6208367347717285 17.48330307006836 C 4.6208367347717285 11.54597282409668 9.420003890991211 6.731071949005127 15.339850425720215 6.731071949005127 C 21.139060974121094 6.731071949005127 25.86130142211914 11.351907730102539 26.048372268676758 17.124895095825195 L 26.048372268676758 17.48330307006836 L 21.376834869384766 17.48330307006836 L 27.48550033569336 24.291301727294922 L 33.76900100708008 17.48330307006836 Z" transform="matrix(1 0 0 1 -0.448997 -1.34624)" stroke-width="1.7483302614371374" fill="rgb(162,162,175)" stroke="null" data-mantain-aspect-ratio="true" fill-opacity="1"/></g></g></svg>