<svg width="100" height="28" viewBox="0 0 100 28" version="1.1" xmlns="http://www.w3.org/2000/svg" xmlns:xlink="http://www.w3.org/1999/xlink">
<title>Logo</title>
<desc>Created using Figma</desc>
<g id="Canvas" transform="translate(-392 -269)">
<g id="Logo">
<g id="Group 3">
<mask id="mask0_outline" mask-type="alpha">
<g id="Clip 2">
<use xlink:href="#path0_fill" transform="translate(416.417 284.525)" fill="#FFFFFF"/>
</g>
</mask>
<g id="Fill 1" mask="url(#mask0_outline)">
<use xlink:href="#path1_fill" transform="translate(416.417 284.525)" fill="#FFFFFF"/>
</g>
</g>
<g id="Fill 4">
<use xlink:href="#path2_fill" transform="translate(429.5 284.441)" fill="#FFFFFF"/>
</g>
<g id="Fill 6">
<use xlink:href="#path3_fill" transform="translate(459.647 284.441)" fill="#FFFFFF"/>
</g>
<g id="Fill 8">
<use xlink:href="#path4_fill" transform="translate(444.206 278.559)" fill="#FFFFFF"/>
</g>
<g id="Group 12">
<g id="Fill 10">
<use xlink:href="#path5_fill" transform="translate(473.052 278.766)" fill="#FFFFFF"/>
</g>
</g>
<g id="Fill 13">
<use xlink:href="#path6_fill" transform="translate(482.441 284.441)" fill="#FFFFFF"/>
</g>
<g id="Group 17">
<g id="Fill 15">
<use xlink:href="#path7_fill" transform="translate(392 286.647)" fill="#FFFFFF"/>
</g>
</g>
<g id="Fill 18">
<use xlink:href="#path8_fill" transform="translate(402.294 278.559)" fill="#FFFFFF"/>
</g>
<g id="Fill 20">
<use xlink:href="#path9_fill" transform="translate(395.676 278.559)" fill="#FFFFFF"/>
</g>
<g id="Fill 22">
<use xlink:href="#path10_fill" transform="translate(408.176 269)" fill="#FFFFFF"/>
</g>
</g>
</g>
<defs>
<path id="path0_fill" fill-rule="evenodd" d="M 0 11.681L 11.5074 11.681L 11.5074 0L 0 0L 0 11.681Z"/>
<path id="path1_fill" fill-rule="evenodd" d="M 2.86996 4.57368C 3.27368 3.13869 4.48421 2.42136 5.96408 2.42136C 7.53343 2.42136 8.65448 3.13869 8.83405 4.57368L 2.86996 4.57368ZM 5.8743 0C 2.287 0 0 2.42136 0 5.78452C 0 9.32693 2.26471 11.6811 6.07585 11.6811C 7.75759 11.6811 9.66316 11.0981 10.8294 9.88731L 9.08049 8.16099C 8.45263 8.81145 7.13003 9.19226 6.12105 9.19226C 4.19257 9.19226 3.00464 8.20588 2.82508 6.83808L 11.457 6.83808C 11.883 2.28669 9.57368 0 5.8743 0Z"/>
<path id="path2_fill" fill-rule="evenodd" d="M 2.9339 4.60652C 3.34671 3.16138 4.58421 2.43851 6.09724 2.43851C 7.70179 2.43851 8.84808 3.16138 9.03144 4.60652L 2.9339 4.60652ZM 6.00539 0C 2.33802 0 0 2.4385 0 5.82592C 0 9.39367 2.31498 11.7647 6.21211 11.7647C 7.93123 11.7647 9.87948 11.1777 11.0715 9.95829L 9.28361 8.21934C 8.64166 8.87444 7.28928 9.25811 6.25756 9.25811C 4.28627 9.25811 3.07181 8.26474 2.88813 6.88707L 11.7132 6.88707C 12.1487 2.30326 9.78795 0 6.00539 0Z"/>
<path id="path3_fill" fill-rule="evenodd" d="M 2.93414 4.60652C 3.34695 3.16138 4.58441 2.43851 6.0974 2.43851C 7.7019 2.43851 8.84785 3.16138 9.03121 4.60652L 2.93414 4.60652ZM 6.00554 0C 2.33796 0 0 2.4385 0 5.82592C 0 9.39367 2.31524 11.7647 6.21195 11.7647C 7.93102 11.7647 9.87953 11.1777 11.0712 9.95829L 9.28336 8.21934C 8.64175 8.87444 7.2894 9.25811 6.25771 9.25811C 4.28647 9.25811 3.07173 8.26474 2.88805 6.88707L 11.7132 6.88707C 12.1487 2.30326 9.788 0 6.00554 0Z"/>
<path id="path4_fill" fill-rule="evenodd" d="M 7.8084 14.5462L 3.05753 14.5462L 3.05753 10.0086L 7.8084 10.0086C 9.07856 10.0086 10.8895 10.8403 10.8895 12.4285C 10.8895 14.0925 9.07856 14.5462 7.8084 14.5462ZM 3.05753 3.02509L 7.8084 3.02509C 9.78407 3.02509 10.3956 4.38651 10.3956 5.19327C 10.3956 6.20163 9.7605 7.08411 7.8084 7.08411L 3.05753 7.08411L 3.05753 3.02509ZM 11.3363 8.52127C 12.8652 7.78992 13.4764 6.47898 13.4764 5.11756C 13.4764 1.56303 11.0542 0 7.80839 0L 0 0L 0 17.6471L 7.80839 17.6471C 11.2187 17.6471 13.9706 16.3866 13.9706 12.4538C 13.9706 11.3444 13.2651 9.15134 11.3363 8.52127Z"/>
<path id="path5_fill" fill-rule="evenodd" d="M 5.06032 14.5254C 4.02082 14.5254 3.31003 13.9167 3.31003 12.6737L 3.31003 7.0387L 7.05715 7.0387L 7.05715 4.2613L 3.33721 4.2613L 3.33721 0L 0 0L 0 4.2613L 0 7.0387L 0 12.6737C 0 15.9272 1.91465 17.5412 4.84162 17.4353C 5.85362 17.4087 6.64659 17.2502 7.60424 16.8796L 6.67409 14.1285C 6.182 14.3666 5.57991 14.5254 5.06032 14.5254Z"/>
<path id="path6_fill" fill-rule="evenodd" d="M 4.97496 4.58009C 3.60643 4.49023 2.9765 4.08604 2.9765 3.36783C 2.9765 2.67138 3.67151 2.2675 4.93137 2.2675C 5.9524 2.2675 6.82176 2.51437 7.58186 3.25528L 9.05936 1.45912C 7.82099 0.336721 6.56083 0 4.88808 0C 2.93291 0 0.369301 0.897611 0.369301 3.45737C 0.369301 5.97205 2.78065 6.73566 4.80121 6.89236C 6.322 6.98252 6.93013 7.29655 6.93013 8.05984C 6.93013 8.86853 5.99598 9.40704 4.99675 9.38465C 3.80168 9.36227 2.06384 8.71121 1.30345 7.83568L 0 9.78884C 1.56408 11.4728 3.25892 11.7647 4.95346 11.7647C 8.01654 11.7647 9.55882 10.0808 9.55882 8.12731C 9.55882 5.18606 6.99551 4.71471 4.97496 4.58009Z"/>
<path id="path7_fill" fill-rule="evenodd" d="M 6.51718 9.48882L 3.42584 9.48882L 0 0L 3.09134 0L 6.51718 9.48882Z"/>
<path id="path8_fill" fill-rule="evenodd" d="M 9.55882 17.6471L 6.22438 17.6471L 0 0L 3.49829 0L 9.55882 17.6471Z"/>
<path id="path9_fill" fill-rule="evenodd" d="M 0 17.6471L 3.3926 17.6471L 9.55882 0L 5.99952 0L 0 17.6471Z"/>
<path id="path10_fill" fill-rule="evenodd" d="M 0 27.2059L 3.23274 27.2059L 12.5 0L 9.10841 0L 0 27.2059Z"/>
</defs>
</svg>
