<?xml version="1.0" standalone="no"?>
<!DOCTYPE svg PUBLIC "-//W3C//DTD SVG 20010904//EN"
 "http://www.w3.org/TR/2001/REC-SVG-20010904/DTD/svg10.dtd">
<svg version="1.0" xmlns="http://www.w3.org/2000/svg"
 width="384.000000pt" height="384.000000pt" viewBox="0 0 384.000000 384.000000"
 preserveAspectRatio="xMidYMid meet">
<metadata>
Created by potrace 1.10, written by Peter Selinger 2001-2011
</metadata>
<g transform="translate(0.000000,384.000000) scale(0.100000,-0.100000)"
fill="#000000" stroke="none">
<path d="M1680 3825 c0 -9 -8 -18 -17 -21 -10 -3 -39 -17 -65 -30 -42 -22 -54
-24 -130 -18 l-83 6 -69 -56 c-59 -47 -79 -57 -145 -72 -42 -9 -81 -18 -88
-20 -7 -1 -36 -35 -65 -74 -45 -60 -63 -75 -124 -105 -66 -32 -74 -39 -98 -90
-14 -31 -26 -64 -26 -75 0 -11 -32 -54 -70 -96 l-71 -76 2 -87 c2 -66 -2 -95
-15 -121 -10 -19 -24 -55 -33 -79 -16 -48 -10 -84 29 -161 13 -25 18 -58 18
-126 l0 -93 65 -68 c36 -37 68 -79 71 -93 7 -32 35 -101 48 -119 15 -19 83
-61 99 -61 18 0 97 -68 97 -83 0 -16 58 -78 93 -100 15 -10 27 -25 27 -33 0
-9 6 -28 14 -42 8 -15 24 -47 36 -72 42 -89 135 -229 197 -296 56 -61 149
-142 178 -155 11 -5 34 -18 50 -29 17 -11 35 -22 40 -24 57 -23 115 -39 184
-51 73 -13 91 -12 169 2 48 8 99 22 114 29 15 8 34 14 44 14 9 0 36 14 61 30
24 17 47 30 51 30 27 0 271 246 272 273 0 5 11 23 24 40 27 35 126 229 126
246 0 35 62 131 84 131 6 0 49 37 96 82 81 79 109 121 124 188 3 14 35 55 71
92 l65 68 0 93 c0 69 5 102 18 127 40 79 45 112 27 165 -9 27 -22 56 -28 64
-7 7 -13 59 -15 117 l-4 104 -64 71 c-36 40 -67 84 -70 98 -4 23 -22 67 -44
111 -4 8 -41 33 -83 55 -54 28 -85 52 -104 80 -46 66 -85 105 -105 105 -67 0
-187 55 -238 110 -23 24 -64 32 -129 26 -65 -6 -76 -4 -141 26 -38 18 -70 38
-70 45 0 9 -15 13 -45 13 -32 0 -45 -4 -45 -14 0 -38 -188 -40 -216 -2 -15 22
-94 22 -94 1z m-270 -997 c76 -68 103 -70 210 -17 33 16 62 29 65 29 14 0 82
-35 119 -62 50 -36 89 -36 145 1 24 16 60 37 81 46 38 17 39 17 105 -15 97
-47 129 -45 200 13 53 43 62 47 112 47 73 0 107 -21 128 -79 25 -73 52 -172
59 -221 9 -58 20 -70 70 -70 45 -1 64 -11 91 -53 27 -43 25 -178 -5 -235 -29
-55 -70 -96 -112 -111 -18 -7 -39 -16 -47 -20 -13 -6 -39 -70 -60 -146 -5 -16
-24 -59 -43 -95 -19 -36 -47 -88 -62 -117 -15 -28 -37 -62 -49 -75 -13 -13
-40 -45 -62 -73 -66 -84 -143 -148 -225 -186 -98 -46 -110 -49 -220 -49 -110
0 -114 1 -221 50 -52 23 -149 97 -189 145 -19 22 -52 61 -74 86 -55 66 -176
287 -176 324 0 8 -6 29 -14 47 -8 18 -17 45 -20 60 -5 21 -15 30 -46 39 -55
17 -116 71 -140 127 -27 61 -29 188 -4 231 23 39 65 62 101 55 37 -7 48 6 61
71 24 125 72 263 100 292 22 22 71 6 122 -39z"/>
<path d="M2180 2480 c-80 -10 -152 -58 -184 -122 -11 -22 -17 -23 -129 -25
l-117 -1 -14 26 c-17 34 -70 81 -116 104 -24 13 -57 18 -113 18 -73 0 -84 -3
-136 -34 -38 -23 -67 -52 -90 -88 -33 -50 -35 -57 -35 -143 0 -91 0 -91 41
-146 50 -67 77 -86 159 -109 60 -17 68 -18 121 -3 32 9 75 30 97 47 49 38 96
102 96 132 0 13 12 35 27 49 57 52 171 21 186 -52 15 -73 104 -154 192 -174
44 -10 67 -10 113 0 77 17 115 43 164 109 41 56 42 56 42 147 1 85 -2 95 -28
135 -69 104 -154 144 -276 130z m-625 -130 c14 -5 39 -24 56 -42 65 -71 22
-207 -70 -222 -59 -9 -96 2 -135 42 -32 31 -36 41 -36 86 0 103 92 171 185
136z m733 -9 c49 -25 72 -67 72 -128 0 -44 -4 -54 -36 -85 -61 -62 -153 -62
-204 1 -25 30 -30 45 -30 89 0 61 21 96 73 124 42 23 80 22 125 -1z"/>
<path d="M1105 1446 c-11 -9 -26 -16 -34 -16 -7 0 -33 -13 -58 -30 -24 -16
-46 -30 -49 -30 -14 0 -137 -102 -201 -168 -64 -65 -159 -192 -173 -232 -3 -8
-16 -37 -29 -65 -56 -123 -61 -161 -61 -547 l0 -358 1410 0 1410 0 0 358 c0
386 -5 424 -61 547 -13 28 -26 57 -29 65 -15 44 -114 173 -186 245 -85 85
-183 156 -292 213 -73 37 -88 39 -102 13 -5 -11 -16 -25 -22 -33 -7 -7 -26
-33 -43 -57 -47 -70 -154 -172 -205 -194 -8 -4 -29 -15 -45 -26 -29 -17 -183
-100 -303 -162 -30 -16 -59 -32 -65 -37 -42 -33 -64 -26 -312 108 -49 27 -112
61 -140 75 -139 72 -216 140 -300 265 -53 79 -75 92 -110 66z"/>
</g>
</svg>
